<?xml version="1.0" standalone="no"?>
<!DOCTYPE svg PUBLIC "-//W3C//DTD SVG 20010904//EN"
 "http://www.w3.org/TR/2001/REC-SVG-20010904/DTD/svg10.dtd">
<svg version="1.0" xmlns="http://www.w3.org/2000/svg"
 width="500.000000pt" height="500.000000pt" viewBox="0 0 500.000000 500.000000"
 preserveAspectRatio="xMidYMid meet">

<g transform="translate(0.000000,500.000000) scale(0.100000,-0.100000)"
fill="#000000" stroke="none">
<path d="M1315 4195 c-97 -21 -164 -51 -255 -113 -93 -63 -165 -148 -220 -259
-58 -118 -60 -135 -60 -845 l0 -648 -25 -16 c-30 -19 -75 -108 -75 -146 0 -45
27 -100 65 -133 l34 -30 2 -241 c1 -216 0 -244 -17 -275 -12 -23 -18 -56 -19
-99 0 -62 4 -72 58 -169 119 -211 207 -303 362 -377 142 -67 70 -64 1335 -64
957 0 1156 3 1213 15 183 39 376 194 458 370 59 125 57 67 53 1335 -3 820 -7
1180 -15 1215 -27 118 -137 283 -234 351 -76 53 -163 97 -240 120 -56 17 -133
19 -1210 21 -929 1 -1162 -1 -1210 -12z m2442 -117 c70 -26 159 -83 198 -128
18 -21 18 -23 2 -17 -10 4 -31 7 -45 7 -20 1 -34 11 -54 40 -58 84 -189 111
-280 57 -48 -28 -92 -85 -106 -138 -8 -32 -11 -34 -55 -37 -28 -2 -58 3 -76
12 -40 21 -63 20 -95 -5 -34 -27 -37 -88 -4 -119 19 -18 35 -20 135 -20 109 0
114 -1 135 -26 13 -14 39 -35 58 -47 33 -21 48 -22 298 -25 l262 -3 0 -30 0
-29 -384 0 -384 0 -30 25 c-33 27 -47 31 -58 14 -4 -8 1 -9 17 -5 19 6 20 5 8
-3 -9 -6 -26 -9 -37 -6 -13 2 -21 -1 -19 -8 1 -7 -12 -12 -33 -14 -27 -1 -31
1 -17 8 9 6 23 7 30 3 9 -5 9 -4 0 6 -10 11 -17 10 -37 -4 -30 -19 -50 -21
-40 -3 6 9 4 9 -8 -1 -9 -7 -22 -12 -30 -11 -7 1 -188 1 -403 0 l-390 -1 -57
-103 c-31 -56 -73 -133 -93 -172 -52 -99 -96 -154 -122 -155 -17 0 -37 27
-104 143 -46 78 -102 171 -126 206 -24 36 -43 68 -43 73 0 4 -198 8 -441 8
l-441 0 43 -52 c24 -29 74 -85 111 -124 l68 -72 0 -226 0 -226 -55 0 -55 0 0
-35 c0 -33 -1 -34 -30 -29 -25 5 -30 3 -35 -19 -4 -14 -18 -35 -31 -48 l-24
-22 0 461 0 462 293 2 c252 3 292 5 292 18 0 13 -39 15 -284 17 -156 1 -286 5
-289 8 -3 3 4 25 15 49 l21 43 69 6 c37 3 183 3 323 0 290 -6 321 -2 369 52
26 30 31 44 31 86 0 28 -5 60 -11 72 -46 89 -148 121 -238 75 -42 -22 -62 -49
-90 -120 l-11 -28 -170 0 c-96 0 -170 4 -170 9 0 16 125 110 176 132 117 50
70 48 1314 46 l1165 -2 72 -27z m-2146 -43 c34 -18 69 -70 69 -103 0 -30 -25
-78 -44 -85 -12 -5 -13 -1 -6 19 6 14 10 36 10 49 0 30 -43 81 -75 89 -32 8
-81 -17 -90 -45 -17 -53 31 -108 64 -74 9 10 12 19 6 21 -32 13 -40 24 -29 41
17 27 50 28 68 1 24 -34 20 -73 -10 -97 -26 -20 -38 -21 -327 -21 l-299 0 14
22 c14 21 19 21 200 19 230 -2 258 6 273 86 14 73 106 114 176 78z m2122 -16
c60 -16 114 -71 125 -127 5 -26 7 -64 5 -84 -4 -30 0 -42 21 -62 14 -14 36
-26 50 -26 25 0 56 23 56 42 0 20 33 48 56 48 13 0 28 -9 34 -20 9 -17 8 -20
-10 -20 -24 0 -38 -26 -21 -43 6 -6 23 -11 39 -12 20 0 28 -6 30 -22 l3 -23
-239 0 c-231 0 -240 1 -283 23 -126 67 -118 246 13 311 58 29 67 30 121 15z
m300 -151 c2 -7 -9 -18 -25 -25 -17 -8 -35 -26 -44 -48 -25 -62 -64 -35 -64
44 l0 41 64 0 c43 0 66 -4 69 -12z m-703 -33 c9 -10 32 -15 76 -15 35 0 64 -4
64 -9 0 -5 3 -17 6 -26 6 -14 -5 -15 -96 -13 -92 3 -104 5 -117 24 -12 19 -12
24 2 38 21 20 49 21 65 1z m-1606 -477 c29 -46 84 -132 121 -193 38 -60 78
-126 90 -145 12 -19 41 -70 64 -112 23 -42 50 -87 60 -99 l18 -23 25 45 c14
24 60 109 102 189 42 80 109 206 149 280 l72 135 153 3 152 3 0 -629 0 -629
-37 -26 c-21 -14 -74 -57 -118 -96 l-80 -71 -5 402 -5 401 -49 -104 c-27 -57
-110 -231 -184 -387 l-136 -283 -39 3 -40 3 -89 165 c-49 91 -106 194 -127
230 -44 75 -209 375 -258 470 -18 35 -38 69 -43 74 -7 7 -10 -138 -10 -426 l0
-436 -78 -1 c-43 0 -97 -7 -121 -16 -24 -8 -45 -15 -47 -15 -2 0 -4 308 -4
685 l0 685 205 0 205 0 54 -82z m1382 -183 c-4 -146 -3 -265 1 -265 12 0 259
331 348 465 l40 60 249 3 c243 2 248 2 235 -17 -40 -54 -236 -303 -318 -403
-6 -7 -49 -62 -97 -122 l-86 -109 23 -31 c13 -17 84 -107 159 -200 74 -93 155
-194 179 -225 24 -31 76 -94 115 -141 40 -47 96 -116 125 -153 l52 -68 -2
-127 c0 -78 -5 -133 -13 -141 -8 -12 -8 -13 2 -7 9 5 12 -4 12 -33 0 -23 -2
-41 -4 -41 -10 0 -131 123 -128 131 1 5 -2 8 -7 7 -12 -4 -179 171 -187 194
-3 10 -25 30 -50 44 -44 26 -56 27 -138 12 -22 -3 -123 114 -203 237 -25 39
-62 90 -83 115 -20 25 -65 87 -99 139 -34 52 -69 100 -77 108 -8 8 -19 23 -24
34 -6 10 -14 19 -18 19 -4 0 -7 -60 -8 -132 0 -73 -2 -174 -2 -224 l-2 -92
-42 15 c-28 10 -70 14 -120 11 l-78 -3 0 602 0 603 126 0 126 0 -6 -265z
m1022 -687 l-3 -273 -56 75 c-31 41 -78 99 -105 129 -27 29 -66 77 -88 105
-31 42 -125 156 -194 238 -16 19 -20 13 282 351 77 87 146 166 151 175 11 19
17 -348 13 -800z m-3038 299 c0 -42 2 -45 40 -62 22 -10 40 -19 40 -21 0 -2
-5 -14 -11 -28 l-12 -25 -38 20 c-50 25 -50 7 0 -26 31 -21 37 -30 33 -50 -5
-27 -8 -26 -60 12 l-33 25 -35 -31 c-19 -17 -39 -31 -44 -31 -16 0 -12 76 4
89 12 10 15 8 18 -11 3 -22 5 -21 32 15 24 31 27 40 16 47 -12 7 -11 11 1 26
11 13 11 18 2 21 -7 3 -13 20 -13 39 0 31 3 34 30 34 29 0 30 -2 30 -43z m-79
-46 c-17 -30 -79 -83 -90 -77 -17 11 -14 22 21 75 31 47 33 48 55 34 17 -11
20 -19 14 -32z m-90 -116 c5 4 9 -13 9 -37 0 -63 11 -74 46 -52 16 10 39 26
51 37 21 19 22 19 52 -4 l31 -23 0 -164 0 -165 -49 46 c-49 46 -105 79 -153
91 l-28 6 0 152 c0 141 1 151 16 130 8 -12 20 -20 25 -17z m12 -351 c70 -35
153 -122 219 -226 17 -26 17 -27 -18 -57 -19 -17 -37 -31 -39 -31 -2 0 -27 36
-55 79 -83 129 -161 183 -220 151 -32 -17 -24 -56 12 -53 32 2 42 -17 22 -46
-28 -40 -90 -19 -114 38 -40 97 92 196 193 145z m2132 -108 c92 -39 153 -123
140 -193 -9 -50 -54 -93 -97 -93 -79 0 -124 117 -49 128 25 4 41 -26 20 -39
-11 -7 -11 -11 -1 -21 18 -18 46 2 50 36 10 83 -130 138 -228 88 -117 -58
-101 -222 27 -287 l41 -20 -25 -19 c-25 -18 -25 -18 -66 10 -25 17 -50 47 -62
71 -11 23 -23 42 -26 43 -3 0 -22 -16 -42 -35 -41 -40 -47 -76 -22 -124 14
-28 14 -29 -6 -24 -11 3 -23 12 -26 19 -7 20 -20 17 -26 -6 -6 -24 -47 -28
-47 -5 0 9 7 29 15 45 l15 29 -33 -1 c-28 -1 -132 -48 -237 -108 -19 -11 -37
-16 -40 -11 -3 5 -14 3 -25 -6 -14 -10 -15 -14 -5 -13 31 4 51 0 45 -11 -4 -5
-12 -8 -18 -6 -7 2 -18 -2 -25 -9 -14 -14 -42 -8 -42 8 0 6 8 4 18 -3 15 -12
16 -12 5 2 -7 9 -9 20 -5 25 4 5 -3 0 -15 -10 -22 -18 -23 -18 -23 -1 0 10 3
15 7 12 3 -4 15 0 25 10 10 9 18 13 18 9 0 -26 279 155 346 226 57 59 140 185
130 195 -2 3 -65 -55 -138 -129 -142 -142 -200 -181 -369 -252 l-81 -33 -59
35 c-68 41 -68 40 46 72 162 45 292 117 424 235 137 122 244 174 359 175 41 0
88 -6 107 -14z m-1474 -155 c101 -35 147 -62 256 -154 l109 -93 -89 -1 -90 -1
-70 46 c-67 43 -152 82 -180 82 -6 0 14 -15 45 -34 67 -41 158 -108 158 -116
0 -4 -11 -12 -23 -19 -21 -11 -30 -9 -73 18 -58 37 -109 53 -178 53 -118 1
-206 -58 -206 -139 0 -38 3 -37 -45 -17 -21 8 -65 16 -99 17 l-61 2 1 55 c3
189 196 339 415 325 42 -3 101 -14 130 -24z m1381 1 c-7 -2 -9 -9 -6 -14 4 -7
2 -8 -4 -4 -6 4 -9 13 -6 21 4 8 11 12 17 8 8 -5 7 -8 -1 -11z m-39 -9 c-7 -2
-13 -9 -13 -14 0 -4 7 -6 15 -3 21 9 19 -6 -7 -33 -27 -28 -34 -29 -41 -2 -3
12 0 22 9 26 8 3 14 11 14 19 0 8 8 14 18 13 10 0 12 -3 5 -6z m-1932 -138 c8
-13 1 -10 -20 10 -17 16 -41 45 -52 65 -19 33 -18 33 20 -10 23 -25 46 -54 52
-65z m1147 79 c35 -8 86 -24 114 -36 l50 -21 -26 -14 c-24 -12 -37 -12 -108 6
-45 12 -131 24 -192 27 -85 5 -116 11 -135 25 -17 14 -20 20 -10 23 51 18 208
13 307 -10z m1600 -11 c32 -35 28 -96 -6 -101 -20 -3 -22 0 -16 21 4 20 1 28
-17 38 -20 10 -25 9 -40 -10 -26 -32 -8 -70 71 -151 66 -66 67 -69 42 -75 -19
-5 -42 5 -101 44 -42 28 -85 57 -96 66 -19 14 -19 15 8 9 34 -8 35 5 2 36 -30
28 -56 20 -65 -21 -6 -23 -6 -22 -19 9 -12 29 -12 35 3 51 19 21 15 26 -32 36
-26 5 -33 11 -30 28 2 12 15 28 31 37 24 13 30 13 55 0 15 -8 37 -35 49 -60
l22 -45 1 33 c0 47 50 97 88 88 15 -4 37 -18 50 -33z m-791 12 c0 -8 -4 -12
-9 -9 -5 3 -6 10 -3 15 9 13 12 11 12 -6z m-14 -28 c3 -8 0 -14 -7 -14 -7 0
-13 6 -13 14 0 7 4 13 8 13 4 0 9 -6 12 -13z m-840 -73 c75 -7 86 -18 30 -28
-73 -12 -137 -6 -160 13 -33 28 -28 34 20 28 23 -4 72 -9 110 -13z m-1137 -26
l29 -33 -32 29 c-31 28 -38 36 -30 36 2 0 16 -15 33 -32z m-61 -15 c17 -37 57
-155 52 -159 -1 -1 -12 -5 -24 -8 -16 -5 -23 -2 -27 11 -9 29 -36 163 -36 179
0 25 16 15 35 -23z m1942 -70 c23 -18 25 -24 14 -37 -18 -22 -32 -20 -64 9
-22 21 -27 34 -27 72 l0 47 25 -35 c14 -19 37 -44 52 -56z m524 61 c100 -30
170 -130 155 -222 -7 -43 -10 -46 -33 -33 -15 7 -19 18 -15 39 5 34 -20 87
-47 102 -52 27 -114 -5 -125 -65 -6 -32 -10 -36 -33 -33 -35 4 -49 49 -28 91
l14 29 -42 -7 c-69 -11 -161 -59 -257 -136 -90 -72 -107 -94 -53 -66 61 32
195 66 280 73 111 8 192 -6 279 -47 89 -41 164 -101 299 -240 61 -62 140 -134
177 -160 l67 -46 -27 -27 c-16 -14 -31 -26 -35 -26 -4 0 -35 24 -69 53 -63 53
-115 90 -198 142 l-45 28 40 -44 c22 -24 49 -53 60 -64 41 -38 125 -153 125
-169 0 -31 -32 -31 -57 0 -91 109 -140 157 -255 252 -71 59 -148 119 -171 134
-63 43 -65 49 -10 33 91 -27 133 -44 211 -84 l77 -40 -43 39 c-62 55 -186 127
-261 150 -104 33 -237 45 -333 31 -91 -12 -180 -38 -245 -70 -23 -12 -49 -18
-58 -15 -9 4 -25 -2 -38 -12 -21 -19 -21 -19 -7 0 13 18 13 19 0 11 -27 -15
-50 -38 -45 -45 2 -4 -7 -5 -21 -2 -14 2 -24 8 -22 12 5 12 204 195 283 260
145 118 189 144 288 170 90 24 148 25 218 4z m-1867 -82 c3 -5 -1 -9 -9 -9 -8
0 -12 4 -9 9 3 4 7 8 9 8 2 0 6 -4 9 -8z m1007 -6 c-8 -10 -9 -16 -1 -21 18
-11 11 -22 -19 -28 -16 -3 -42 -9 -57 -13 -26 -7 -28 -6 -15 10 8 9 16 14 19
11 3 -2 14 5 25 18 l19 22 -6 -25 c-5 -17 -4 -21 2 -11 6 8 15 10 23 5 11 -6
12 -5 2 7 -10 12 -10 18 -1 27 17 17 23 15 9 -2z m-492 -25 c63 -23 146 -83
276 -196 176 -154 409 -294 594 -355 47 -16 138 -43 202 -59 162 -41 272 -93
367 -173 l33 -28 -26 0 c-15 0 -41 11 -58 24 -45 34 -207 116 -229 116 -39 0
-15 -31 55 -69 126 -69 126 -70 22 -71 l-91 0 -75 75 c-66 66 -88 81 -179 120
-57 25 -105 44 -106 42 -2 -2 12 -19 31 -37 36 -35 47 -84 24 -107 -8 -8 -1
-17 27 -32 22 -11 50 -29 64 -40 l25 -21 -30 1 c-23 0 -49 17 -115 76 -252
225 -390 337 -460 373 -24 12 -24 11 5 -21 17 -18 35 -38 42 -44 6 -5 83 -78
170 -161 87 -83 176 -167 198 -187 l40 -36 -106 -1 -106 0 -37 60 c-56 90
-175 231 -189 224 -7 -4 -9 -4 -5 1 4 4 -1 20 -12 35 -33 47 -22 46 27 0 l46
-45 -34 48 c-47 67 -271 282 -343 329 -71 46 -97 51 -35 7 67 -48 108 -90 102
-105 -8 -20 -23 -17 -17 4 5 14 4 15 -5 2 -6 -8 -11 -10 -11 -4 0 7 -7 15 -16
18 -15 6 37 -67 58 -80 11 -7 78 -109 78 -120 0 -4 -16 14 -35 39 -34 44 -168
152 -226 183 -48 24 -120 29 -157 10 -57 -30 -79 -103 -43 -147 16 -20 21 -21
35 -10 20 17 21 31 1 31 -22 0 -19 47 4 55 73 23 92 -103 21 -140 -50 -26
-104 -19 -146 17 -91 81 -100 221 -19 315 90 105 226 137 364 84z m-634 -1
c33 -22 75 -93 75 -128 0 -13 -3 -22 -7 -20 -5 3 -23 10 -40 17 -20 8 -33 20
-33 30 0 26 -10 31 -32 18 -16 -10 -22 -8 -38 11 -19 24 -19 54 1 78 16 19 39
17 74 -6z m141 -2 c3 -4 -1 -5 -10 -4 -8 1 -18 5 -22 8 -3 4 1 5 10 4 8 -1 18
-5 22 -8z m1031 -4 c-3 -3 -12 -4 -19 -1 -8 3 -5 6 6 6 11 1 17 -2 13 -5z
m1107 -31 c37 -24 38 -27 21 -39 -15 -12 -24 -10 -59 11 -23 13 -48 34 -56 46
-14 22 -14 22 20 16 19 -4 52 -19 74 -34z m-2070 19 c3 -5 -1 -9 -9 -9 -8 0
-12 4 -9 9 3 4 7 8 9 8 2 0 6 -4 9 -8z m1834 -24 c7 -7 12 -27 12 -46 0 -34
-1 -34 -32 -28 -48 10 -64 29 -50 61 13 27 49 34 70 13z m-664 -39 c-33 -36
-47 -39 -97 -15 -27 12 -45 25 -41 29 4 4 41 7 82 7 l75 0 -19 -21z m1297 -12
c50 -27 68 -43 87 -78 45 -84 8 -179 -69 -179 -32 0 -79 38 -79 64 0 23 22 31
35 13 17 -23 52 -21 60 3 13 42 -35 86 -84 75 -45 -10 -73 -47 -79 -104 -6
-62 25 -119 93 -178 41 -35 44 -40 32 -58 -14 -18 -16 -18 -58 7 -24 15 -56
39 -72 55 -29 31 -67 126 -67 168 0 32 24 81 58 118 28 30 17 35 -27 13 -31
-16 -96 -91 -110 -128 -10 -22 -10 -22 -10 5 -1 15 6 42 15 60 l16 32 -38 -37
-39 -37 -42 43 c-24 23 -43 46 -43 52 0 16 95 75 162 99 42 16 85 24 130 24
57 1 76 -4 129 -32z m-1427 -18 c45 -28 48 -32 33 -46 -15 -15 -19 -14 -49 9
-18 14 -50 31 -72 38 -28 9 -35 15 -25 21 26 16 65 9 113 -22z m-1420 0 c76
-23 146 -55 146 -67 0 -4 -32 -21 -70 -39 l-71 -32 -55 30 c-71 37 -169 41
-222 9 -35 -21 -72 -74 -72 -102 0 -20 34 -58 50 -58 19 0 23 31 6 43 -23 17
-10 47 20 47 26 0 54 -34 54 -66 0 -13 -12 -36 -26 -53 -70 -83 -188 11 -170
134 12 76 58 125 157 164 44 18 177 12 253 -10z m1319 -25 c29 -15 60 -33 70
-42 16 -14 16 -16 1 -34 -10 -10 -21 -18 -27 -18 -10 0 -167 109 -167 116 0
14 79 0 123 -22z m-78 -55 c78 -67 91 -85 48 -67 -42 18 -172 112 -167 120 13
21 55 3 119 -53z m-912 -61 c3 -24 3 -46 -1 -49 -4 -3 -41 -12 -81 -18 -101
-16 -204 -62 -355 -161 -84 -54 -133 -80 -144 -75 -17 6 7 32 149 156 102 90
303 185 395 188 29 1 32 -2 37 -41z m461 -63 c29 -19 67 -51 83 -72 39 -50
103 -148 103 -157 0 -4 -30 20 -67 54 -37 34 -97 81 -133 105 -51 34 -67 51
-76 80 -11 36 -11 36 12 31 14 -4 48 -22 78 -41z m1151 10 c76 -53 190 -185
244 -280 22 -39 22 -40 1 -15 -88 101 -161 171 -195 186 -22 10 -70 47 -107
81 l-66 63 37 0 c27 0 52 -10 86 -35z m-153 14 c32 -17 68 -52 89 -86 14 -23
37 -38 81 -55 40 -15 67 -33 77 -49 9 -15 31 -48 49 -73 19 -26 32 -50 29 -53
-9 -8 -107 49 -107 62 0 7 -27 24 -60 38 -68 30 -267 206 -246 219 17 11 64
10 88 -3z m261 -20 c80 -40 134 -86 202 -170 57 -70 132 -205 121 -216 -3 -3
-1 -12 6 -20 8 -11 7 -12 -6 -7 -9 3 -16 10 -16 16 0 5 -5 6 -12 2 -6 -4 -8
-3 -5 2 3 6 -11 28 -31 50 -20 22 -50 58 -66 79 -17 22 -32 42 -35 45 -4 3
-32 37 -65 75 -32 39 -84 94 -115 122 -31 29 -52 53 -47 53 5 0 36 -14 69 -31z
m-283 -106 c44 -46 80 -88 80 -93 0 -18 -36 4 -85 52 -27 27 -76 65 -107 86
-62 40 -68 48 -40 54 36 8 74 -16 152 -99z m-1430 51 c0 -7 2 -21 5 -31 3 -10
-2 -4 -10 12 l-16 30 6 -30 c5 -24 4 -28 -6 -17 -17 16 -34 16 -21 -1 8 -10 6
-13 -9 -13 -10 0 -19 4 -19 8 0 4 -5 8 -11 8 -5 0 -7 -4 -4 -10 4 -6 -10 -11
-34 -12 -23 -1 -54 -2 -71 -3 -16 -1 -31 4 -34 11 -4 10 15 20 62 33 110 33
162 37 162 15z m1263 -2 c36 -24 26 -32 -42 -32 -74 0 -94 13 -55 34 38 20 63
20 97 -2z m1297 -63 c0 -3 -7 -14 -14 -25 -14 -18 -16 -17 -57 23 l-42 41 57
-16 c31 -10 56 -20 56 -23z m-2134 -18 c100 -65 181 -146 233 -235 64 -108 69
-126 39 -126 -18 0 -30 14 -60 73 -21 39 -57 95 -80 124 -46 55 -185 183 -199
183 -5 0 -9 5 -9 10 0 17 15 11 76 -29z m358 -23 c-3 -5 -11 -5 -18 1 -9 7
-17 7 -26 -2 -10 -10 -11 -9 -4 3 12 21 12 32 0 50 -6 8 4 2 22 -14 17 -16 29
-33 26 -38z m576 30 c12 -13 26 -31 31 -40 8 -16 4 -15 -46 2 -75 26 -95 37
-75 44 8 2 22 7 30 9 28 10 39 7 60 -15z m-911 -112 c67 -65 156 -186 167
-230 9 -39 -21 -34 -42 7 -38 75 -141 198 -218 260 -17 14 -26 29 -22 35 11
18 40 -1 115 -72z m-304 59 c22 -8 65 -18 95 -22 72 -8 115 -37 190 -125 34
-40 70 -83 80 -94 11 -12 24 -33 29 -48 10 -24 8 -26 -14 -26 -32 0 -96 41
-93 59 4 16 -83 105 -160 165 -52 40 -144 86 -197 99 -16 4 -15 5 5 5 14 1 43
-5 65 -13z m-164 -26 c87 -30 181 -93 260 -175 78 -82 98 -114 73 -114 -10 0
-48 34 -86 75 -78 84 -206 174 -285 200 -55 17 -78 35 -46 35 11 0 48 -10 84
-21z m-127 -28 c63 -60 25 -176 -49 -147 -22 8 -18 44 6 51 26 9 21 36 -10 51
-51 26 -127 -24 -157 -103 -16 -40 -36 -55 -48 -35 -8 14 12 77 34 105 11 14
20 28 20 31 0 10 -40 -13 -83 -46 -24 -20 -43 -28 -55 -23 -14 5 -7 15 38 56
73 65 137 90 217 86 49 -2 68 -8 87 -26z m-244 15 c0 -6 -110 -76 -121 -76
-24 0 0 25 50 51 50 27 71 34 71 25z m405 -72 c96 -58 225 -169 225 -195 0
-23 -38 -4 -90 45 -31 30 -83 67 -116 84 -74 38 -90 51 -99 80 -9 32 9 28 80
-14z m2139 -76 l75 -82 -26 -11 c-25 -10 -30 -8 -68 39 -38 48 -95 137 -95
151 0 16 45 -23 114 -97z m-781 18 c-4 -5 1 -7 9 -3 10 3 25 -4 39 -19 12 -13
19 -24 15 -24 -5 0 -3 -7 4 -15 22 -27 -8 -18 -56 17 -46 33 -57 58 -25 55 11
0 17 -5 14 -11z m-1629 -52 c3 -8 2 -13 -3 -9 -5 3 -18 -6 -29 -20 -22 -27
-37 -31 -48 -13 -4 6 5 21 22 35 34 27 50 29 58 7z m218 -29 c29 -14 64 -35
78 -46 l25 -20 -50 3 c-27 2 -53 8 -57 13 -5 6 -8 4 -8 -5 0 -13 -2 -13 -9 -1
-5 8 -17 16 -25 17 -9 1 -14 -2 -10 -7 3 -5 11 -6 17 -3 7 4 8 3 4 -2 -12 -12
-89 -12 -106 0 -12 9 -13 8 -7 -2 7 -11 4 -12 -12 -3 -21 11 -21 41 0 41 5 0
7 -4 3 -10 -3 -5 7 -3 22 5 15 8 33 15 39 15 6 0 17 7 24 15 16 19 10 20 72
-10z m1537 -22 c2 -2 -3 -3 -11 -3 -9 0 -19 7 -22 16 -6 15 -4 15 11 3 10 -7
20 -15 22 -16z m-1776 2 c-3 -9 -8 -14 -10 -11 -3 3 -2 9 2 15 9 16 15 13 8
-4z"/>
<path d="M2907 4003 c-4 -3 -2 -12 4 -20 17 -19 451 -19 468 0 6 8 8 17 4 20
-8 9 -468 9 -476 0z"/>
<path d="M1660 3731 c0 -24 25 -34 40 -16 15 18 5 35 -21 35 -12 0 -19 -7 -19
-19z"/>
<path d="M954 3335 c-9 -23 10 -40 25 -22 9 11 8 17 -4 27 -12 10 -16 9 -21
-5z"/>
<path d="M937 3214 c-4 -4 -7 -16 -7 -26 0 -10 -4 -18 -10 -18 -5 0 -10 -7
-10 -15 0 -8 9 -15 20 -15 24 0 25 -8 3 -32 -9 -10 -13 -21 -10 -24 7 -7 56
31 81 64 17 22 16 22 -14 22 -16 0 -30 5 -30 10 0 6 18 10 40 10 55 0 53 -22
-10 -81 -47 -45 -50 -49 -50 -99 l0 -51 33 3 c23 2 32 8 31 21 -1 13 6 17 32
17 34 0 34 1 34 45 0 41 -2 45 -25 45 l-26 0 23 30 c12 17 28 30 35 30 7 0 13
9 13 20 0 22 -15 27 -24 8 -2 -7 -4 -2 -3 12 2 24 -1 25 -58 28 -34 2 -64 0
-68 -4z m53 -164 c0 -5 9 -10 21 -10 11 0 17 5 14 10 -3 6 1 10 9 10 9 0 16
-7 16 -15 0 -10 -10 -15 -30 -15 -19 0 -30 -5 -30 -14 0 -8 -4 -18 -10 -21 -6
-4 -10 8 -10 29 0 20 5 36 10 36 6 0 10 -4 10 -10z"/>
<path d="M2063 3183 c4 -3 -1 -12 -11 -20 -15 -13 -15 -13 6 -3 19 9 23 30 5
30 -4 0 -3 -3 0 -7z"/>
<path d="M3604 3926 c-30 -30 -34 -40 -34 -86 0 -48 4 -56 40 -92 39 -39 42
-40 92 -36 44 5 57 11 85 42 27 30 33 44 33 82 0 41 -5 51 -39 85 -35 35 -44
39 -91 39 -46 0 -56 -4 -86 -34z m153 -28 c30 -28 36 -63 18 -98 -35 -68 -125
-69 -160 0 -22 43 -19 58 20 97 30 30 39 34 67 28 18 -4 43 -16 55 -27z"/>
<path d="M3662 3868 c-18 -18 -14 -56 7 -68 25 -13 51 -13 51 0 0 6 -7 10 -15
10 -22 0 -18 28 6 35 11 4 18 12 16 18 -5 17 -50 20 -65 5z"/>
<path d="M3943 1834 c9 -11 15 -24 12 -27 -3 -4 -2 -5 2 -2 4 3 8 13 9 21 1 9
0 13 -3 10 -4 -3 -13 0 -22 6 -12 10 -12 7 2 -8z"/>
<path d="M4073 1695 c0 -8 12 -25 26 -37 l26 -23 -25 28 c-14 16 -23 31 -22
34 2 2 2 7 0 9 -3 2 -5 -3 -5 -11z"/>
<path d="M3986 3051 c-4 -6 -20 -11 -36 -11 -26 0 -28 -3 -32 -47 -3 -27 -8
-56 -12 -65 -6 -14 -3 -18 13 -18 25 0 28 -32 6 -70 -25 -44 -19 -52 25 -30
23 12 43 27 47 35 8 22 20 18 52 -17 33 -37 51 -33 26 5 -11 17 -12 26 -5 29
17 5 20 166 4 179 -19 16 -81 23 -88 10z m74 -33 c0 -5 -9 -8 -20 -8 -11 0
-20 -5 -20 -11 0 -6 9 -9 20 -6 16 4 20 0 20 -19 0 -20 -5 -24 -30 -24 -20 0
-30 5 -30 15 0 11 -5 12 -25 5 -23 -9 -25 -7 -25 20 0 24 5 29 28 32 44 6 82
4 82 -4z m-77 -112 c-2 -22 -8 -45 -13 -50 -8 -8 -9 2 -4 32 5 35 4 42 -10 42
-9 0 -16 5 -16 11 0 6 10 9 23 7 19 -3 22 -8 20 -42z m67 20 c0 -8 3 -21 6
-30 5 -12 0 -16 -20 -16 -14 0 -26 5 -26 10 0 6 6 10 14 10 9 0 12 7 9 20 -3
11 0 20 6 20 6 0 11 -6 11 -14z"/>
<path d="M3960 3000 c0 -5 9 -10 20 -10 11 0 20 5 20 10 0 6 -9 10 -20 10 -11
0 -20 -4 -20 -10z"/>
<path d="M4020 2970 c0 -5 7 -10 15 -10 8 0 15 5 15 10 0 6 -7 10 -15 10 -8 0
-15 -4 -15 -10z"/>
<path d="M3758 2796 l-27 -33 30 -29 29 -28 30 30 30 30 -33 32 -32 31 -27
-33z m42 -40 c-13 -13 -35 7 -25 24 5 8 11 8 21 -1 10 -8 12 -15 4 -23z"/>
<path d="M3965 2733 c-16 -3 -33 -8 -37 -11 -14 -14 -16 -128 -2 -147 12 -16
12 -21 -2 -36 -24 -26 -8 -44 22 -24 13 8 24 11 24 5 0 -16 56 -12 70 5 11 14
14 13 24 -1 11 -14 14 -14 24 -1 10 12 9 16 -4 21 -13 5 -14 9 -4 21 10 12 10
21 2 40 -6 13 -7 27 -3 30 7 4 4 83 -3 91 -4 6 -87 11 -111 7z m81 -33 c8 0
14 -4 14 -10 0 -5 -8 -9 -17 -7 -27 3 -27 -17 -1 -25 22 -6 21 -6 -4 -7 -19
-1 -28 -6 -29 -18 0 -13 -3 -12 -10 5 -5 13 -7 28 -4 32 8 13 -9 20 -25 9 -10
-6 -11 -9 -2 -9 17 0 15 -17 -3 -24 -11 -4 -15 2 -15 24 0 24 5 29 28 33 15 2
33 2 40 0 8 -1 20 -3 28 -3z m-62 -82 c7 -7 10 -22 8 -35 -3 -17 0 -23 13 -23
13 0 16 6 13 25 -4 21 -1 25 17 25 13 0 26 -7 29 -16 5 -14 4 -15 -9 -4 -13
10 -15 9 -15 -7 0 -26 -19 -43 -47 -43 -22 0 -23 3 -17 35 5 28 3 35 -10 35
-9 0 -16 5 -16 10 0 14 18 13 34 -2z m-20 -33 c-4 -8 -10 -15 -15 -15 -5 0 -9
7 -9 15 0 8 7 15 15 15 9 0 12 -6 9 -15z"/>
<path d="M990 2435 c-7 -8 -10 -22 -6 -30 7 -20 55 -20 62 0 7 17 -12 45 -31
45 -7 0 -18 -7 -25 -15z"/>
<path d="M1105 1691 c-3 -5 -2 -12 3 -15 5 -3 9 1 9 9 0 17 -3 19 -12 6z"/>
<path d="M2920 1971 c-8 -6 -18 -7 -22 -5 -4 3 -5 -2 -2 -10 5 -12 8 -12 25 2
26 23 26 29 -1 13z"/>
<path d="M2776 1463 c-6 -14 -5 -15 5 -6 7 7 10 15 7 18 -3 3 -9 -2 -12 -12z"/>
<path d="M2745 1460 c-3 -5 -1 -10 4 -10 6 0 11 5 11 10 0 6 -2 10 -4 10 -3 0
-8 -4 -11 -10z"/>
<path d="M2706 1433 c-11 -11 -6 -23 10 -23 9 0 12 5 8 12 -5 8 -2 9 9 5 9 -3
18 -3 21 1 6 10 -39 14 -48 5z"/>
<path d="M1498 1303 c7 -3 16 -2 19 1 4 3 -2 6 -13 5 -11 0 -14 -3 -6 -6z"/>
<path d="M2300 1236 c0 -2 8 -10 18 -17 15 -13 16 -12 3 4 -13 16 -21 21 -21
13z"/>
<path d="M2950 990 c6 -11 16 -20 22 -20 6 0 3 9 -7 20 -10 11 -20 20 -22 20
-2 0 1 -9 7 -20z"/>
<path d="M1396 888 c3 -5 10 -6 15 -3 13 9 11 12 -6 12 -8 0 -12 -4 -9 -9z"/>
</g>
</svg>
